<svg xmlns="http://www.w3.org/2000/svg" xmlns:xlink="http://www.w3.org/1999/xlink" viewBox="0 0 491.68 851.34"><defs><style>.cls-1{fill:url(#Degradado_sin_nombre_17);}</style><linearGradient id="Degradado_sin_nombre_17" x1="-39.37" y1="248.25" x2="463.24" y2="538.43" gradientUnits="userSpaceOnUse"><stop offset="0" stop-color="#c1272d"/><stop offset="1" stop-color="#c1702d"/></linearGradient></defs><title>Iso</title><g id="Capa_2" data-name="Capa 2"><g id="Capa_4" data-name="Capa 4"><path class="cls-1" d="M245.84,491.68C110.28,491.68,0,381.4,0,245.84S110.28,0,245.84,0,491.68,110.28,491.68,245.84,381.4,491.68,245.84,491.68Zm0-426.3c-99.5,0-180.46,81-180.46,180.46s81,180.46,180.46,180.46,180.46-81,180.46-180.46S345.34,65.38,245.84,65.38Zm0,712.35,136.58-258h0c-86.95,46.38-186.21,46.38-273.16,0h0ZM295.92,824c0-15.09-22.42-27.32-50.08-27.32S195.76,808.93,195.76,824s22.42,27.32,50.08,27.32S295.92,839.11,295.92,824Z"/></g></g></svg>