<svg xmlns="http://www.w3.org/2000/svg" xmlns:xlink="http://www.w3.org/1999/xlink" viewBox="0 0 133.1 230.45"><defs><style>.cls-1{fill:url(#Degradado_sin_nombre_17);}</style><linearGradient id="Degradado_sin_nombre_17" x1="-10.66" y1="67.2" x2="125.4" y2="145.75" gradientUnits="userSpaceOnUse"><stop offset="0" stop-color="#c1272d"/><stop offset="1" stop-color="#c1702d"/></linearGradient></defs><title>Iso254</title><g id="Capa_2" data-name="Capa 2"><g id="Capa_8" data-name="Capa 8"><path class="cls-1" d="M66.55,133.1A66.55,66.55,0,1,1,133.1,66.55,66.63,66.63,0,0,1,66.55,133.1Zm0-115.4A48.85,48.85,0,1,0,115.4,66.55,48.9,48.9,0,0,0,66.55,17.7Zm0,192.83,37-69.83h0a77.31,77.31,0,0,1-73.94,0h0ZM80.1,223.06c0-4.08-6.06-7.39-13.55-7.39S53,219,53,223.06s6.07,7.39,13.56,7.39S80.1,227.14,80.1,223.06Z"/></g></g></svg>