<svg xmlns="http://www.w3.org/2000/svg" xmlns:xlink="http://www.w3.org/1999/xlink" viewBox="0 0 837.3 431.34"><defs><style>.cls-1{fill:url(#Degradado_sin_nombre_21);}.cls-2{fill:url(#Degradado_sin_nombre_17);}</style><linearGradient id="Degradado_sin_nombre_21" x1="298.01" y1="-4.4" x2="793.21" y2="281.51" gradientUnits="userSpaceOnUse"><stop offset="0" stop-color="#c1272d"/><stop offset="1" stop-color="#db6024"/></linearGradient><linearGradient id="Degradado_sin_nombre_17" x1="-19.94" y1="125.78" x2="234.71" y2="272.8" gradientUnits="userSpaceOnUse"><stop offset="0" stop-color="#c1272d"/><stop offset="1" stop-color="#c1702d"/></linearGradient></defs><title>LogoJ</title><g id="Capa_2" data-name="Capa 2"><g id="Capa_2-2" data-name="Capa 2"><path class="cls-1" d="M426.83,14.69V38.77h-109v76.37H411v24.08H317.87v93.89H287V14.69Zm179.26,0V38.77h-109v72.55h88.21v23.17H497.14V209h109v24.08H466.26V14.69ZM684,142v91.15H653.44V14.69h64.14q21.54,0,37.22,4.19T780.69,31a48.69,48.69,0,0,1,15.12,19.13,61.89,61.89,0,0,1,4.91,25.07,60.66,60.66,0,0,1-3.8,21.65,56.82,56.82,0,0,1-11,18.06,65.73,65.73,0,0,1-17.58,13.64,89.23,89.23,0,0,1-23.52,8.54A31.87,31.87,0,0,1,755,146.38l66.2,86.73H793.91q-8.38,0-12.35-6.25l-58.91-78a17,17,0,0,0-5.86-5.26c-2.11-1.06-5.28-1.6-9.5-1.6Zm0-21.49h32.15a81.21,81.21,0,0,0,23.67-3.12,48.85,48.85,0,0,0,17.11-8.85,36.82,36.82,0,0,0,10.37-13.64,43.1,43.1,0,0,0,3.48-17.53q0-19.5-13.38-29.41T717.58,38H684Z"/><path d="M360.34,344.87q1.11,2.7,2.17,5.45,1.07-2.85,2.23-5.45t2.64-5.25l51.34-89.77a6,6,0,0,1,2.86-2.85,13.66,13.66,0,0,1,4.24-.51H441v146H423V285.21c0-1.43,0-2.95.1-4.58s.18-3.3.32-5l-52,91.3q-2.64,4.57-7.41,4.58h-3q-4.77,0-7.41-4.58l-53.14-91.6c.21,1.76.37,3.5.47,5.19s.16,3.26.16,4.69V392.5h-18v-146h15.14a13.66,13.66,0,0,1,4.24.51,6,6,0,0,1,2.85,2.85l52.41,89.87A37,37,0,0,1,360.34,344.87Z"/><path d="M602.71,392.5H586.83a7,7,0,0,1-4.44-1.32,8.09,8.09,0,0,1-2.54-3.36l-14.19-35.26H497.59l-14.18,35.26a8.08,8.08,0,0,1-2.55,3.26,6.93,6.93,0,0,1-4.44,1.42H460.54l60.66-146h20.85Zm-99.4-54.2h56.63l-23.82-59.41a107.75,107.75,0,0,1-4.55-13.75c-.77,2.78-1.53,5.35-2.27,7.69s-1.47,4.4-2.17,6.17Z"/><path d="M644.42,337.89V392.5H624v-146h44.78a87,87,0,0,1,25,3.21,48.67,48.67,0,0,1,17.63,9.12,36.86,36.86,0,0,1,10.43,14.27,48.58,48.58,0,0,1,3.44,18.64,46,46,0,0,1-3.71,18.65A40.14,40.14,0,0,1,710.74,325,51.07,51.07,0,0,1,693,334.48a79.15,79.15,0,0,1-24.24,3.41Zm0-15.69h24.35A49.21,49.21,0,0,0,684.28,320a32.21,32.21,0,0,0,11.27-6.27,26,26,0,0,0,6.88-9.63,31.83,31.83,0,0,0,2.33-12.33q0-14-8.94-21.8t-27.05-7.85H644.42Z"/><path d="M828.93,269.32a8,8,0,0,1-2,2.29,4.57,4.57,0,0,1-2.75.76,7.44,7.44,0,0,1-4.18-1.73,68.34,68.34,0,0,0-6-3.82,50.05,50.05,0,0,0-8.79-3.82,39,39,0,0,0-12.44-1.73,38,38,0,0,0-12.17,1.78,26.09,26.09,0,0,0-8.84,4.84,19.87,19.87,0,0,0-5.35,7.18,22.08,22.08,0,0,0-1.8,8.92,16.08,16.08,0,0,0,3.12,10.14A26.77,26.77,0,0,0,776,301,64.47,64.47,0,0,0,787.6,306q6.51,2.08,13.33,4.33t13.34,5a47.52,47.52,0,0,1,11.65,7.08,32.52,32.52,0,0,1,8.26,10.5q3.12,6.21,3.12,15.28a47.57,47.57,0,0,1-3.39,18,41.29,41.29,0,0,1-9.9,14.62,46.55,46.55,0,0,1-16,9.79,61,61,0,0,1-21.54,3.56A68,68,0,0,1,759.65,389,63.11,63.11,0,0,1,739,375.08l5.93-9.37a7.49,7.49,0,0,1,2.07-1.89,5,5,0,0,1,2.7-.76q2.22,0,5.08,2.29a82,82,0,0,0,7.14,5,55.21,55.21,0,0,0,10.38,5.05,42.52,42.52,0,0,0,14.87,2.29,40.51,40.51,0,0,0,13-1.94,28,28,0,0,0,9.69-5.45,23.77,23.77,0,0,0,6.09-8.4A27.22,27.22,0,0,0,818,351a17.81,17.81,0,0,0-3.12-10.85,25.51,25.51,0,0,0-8.21-7.08,58.17,58.17,0,0,0-11.59-4.84l-13.34-4.08a135.62,135.62,0,0,1-13.33-4.84,43.44,43.44,0,0,1-11.6-7.13,32.77,32.77,0,0,1-8.2-10.95q-3.12-6.57-3.12-16.25a37.46,37.46,0,0,1,3.12-15,38.65,38.65,0,0,1,9.05-12.84,44.35,44.35,0,0,1,14.66-9,55.61,55.61,0,0,1,20.06-3.36,66.53,66.53,0,0,1,23.19,3.87,53.87,53.87,0,0,1,18.31,11.21Z"/><path class="cls-2" d="M124.56,249.11A124.56,124.56,0,1,1,249.11,124.56,124.7,124.7,0,0,1,124.56,249.11Zm0-216A91.43,91.43,0,1,0,216,124.56,91.53,91.53,0,0,0,124.56,33.13Zm0,360.92,69.19-130.71h0c-44.05,23.49-94.34,23.49-138.39,0h0Zm25.37,23.45c0-7.65-11.36-13.84-25.37-13.84s-25.38,6.19-25.38,13.84,11.36,13.84,25.38,13.84S149.93,425.14,149.93,417.5Z"/></g></g></svg>