<svg xmlns="http://www.w3.org/2000/svg" xmlns:xlink="http://www.w3.org/1999/xlink" viewBox="0 0 15 25.97"><defs><style>.cls-1{fill:url(#Degradado_sin_nombre_17);}</style><linearGradient id="Degradado_sin_nombre_17" x1="-1.2" y1="7.57" x2="14.13" y2="16.43" gradientUnits="userSpaceOnUse"><stop offset="0" stop-color="#c1272d"/><stop offset="1" stop-color="#c1702d"/></linearGradient></defs><title>iso15</title><g id="Capa_2" data-name="Capa 2"><g id="Capa_8" data-name="Capa 8"><path class="cls-1" d="M7.5,15A7.5,7.5,0,1,1,15,7.5,7.5,7.5,0,0,1,7.5,15Zm0-13A5.51,5.51,0,1,0,13,7.5,5.51,5.51,0,0,0,7.5,2Zm0,21.74,4.17-7.87h0a8.75,8.75,0,0,1-8.34,0h0ZM9,25.14c0-.46-.69-.83-1.53-.83S6,24.68,6,25.14,6.66,26,7.5,26,9,25.6,9,25.14Z"/></g></g></svg>