<svg xmlns="http://www.w3.org/2000/svg" xmlns:xlink="http://www.w3.org/1999/xlink" viewBox="0 0 10 17.31"><defs><style>.cls-1{fill:url(#Degradado_sin_nombre_17);}</style><linearGradient id="Degradado_sin_nombre_17" x1="-0.8" y1="5.05" x2="9.42" y2="10.95" gradientUnits="userSpaceOnUse"><stop offset="0" stop-color="#c1272d"/><stop offset="1" stop-color="#c1702d"/></linearGradient></defs><title>Recurso 13</title><g id="Capa_2" data-name="Capa 2"><g id="Capa_8" data-name="Capa 8"><path class="cls-1" d="M5,10a5,5,0,1,1,5-5A5,5,0,0,1,5,10ZM5,1.33A3.67,3.67,0,1,0,8.67,5,3.68,3.68,0,0,0,5,1.33ZM5,15.82l2.78-5.25h0a5.83,5.83,0,0,1-5.56,0h0Zm1,.94c0-.31-.46-.56-1-.56s-1,.25-1,.56.46.55,1,.55S6,17.07,6,16.76Z"/></g></g></svg>