<svg xmlns="http://www.w3.org/2000/svg" xmlns:xlink="http://www.w3.org/1999/xlink" viewBox="0 0 5 8.66"><defs><style>.cls-1{fill:url(#Degradado_sin_nombre_17);}</style><linearGradient id="Degradado_sin_nombre_17" x1="-0.4" y1="2.52" x2="4.71" y2="5.48" gradientUnits="userSpaceOnUse"><stop offset="0" stop-color="#c1272d"/><stop offset="1" stop-color="#c1702d"/></linearGradient></defs><title>Recurso 14</title><g id="Capa_2" data-name="Capa 2"><g id="Capa_8" data-name="Capa 8"><path class="cls-1" d="M2.5,5A2.5,2.5,0,1,1,5,2.5,2.5,2.5,0,0,1,2.5,5ZM2.5.66A1.84,1.84,0,1,0,4.34,2.5,1.85,1.85,0,0,0,2.5.66Zm0,7.25L3.89,5.29h0a2.92,2.92,0,0,1-2.78,0h0ZM3,8.38c0-.15-.23-.28-.51-.28S2,8.23,2,8.38s.23.28.51.28S3,8.53,3,8.38Z"/></g></g></svg>