<svg xmlns="http://www.w3.org/2000/svg" xmlns:xlink="http://www.w3.org/1999/xlink" viewBox="0 0 20 34.63"><defs><style>.cls-1{fill:url(#Degradado_sin_nombre_17);}</style><linearGradient id="Degradado_sin_nombre_17" x1="-1.6" y1="10.1" x2="18.84" y2="21.9" gradientUnits="userSpaceOnUse"><stop offset="0" stop-color="#c1272d"/><stop offset="1" stop-color="#c1702d"/></linearGradient></defs><title>Recurso 11</title><g id="Capa_2" data-name="Capa 2"><g id="Capa_8" data-name="Capa 8"><path class="cls-1" d="M10,20A10,10,0,1,1,20,10,10,10,0,0,1,10,20ZM10,2.66A7.34,7.34,0,1,0,17.34,10,7.34,7.34,0,0,0,10,2.66Zm0,29,5.56-10.5h0a11.61,11.61,0,0,1-11.12,0h0Zm2,1.88c0-.62-.91-1.11-2-1.11s-2,.49-2,1.11.91,1.11,2,1.11S12,34.13,12,33.52Z"/></g></g></svg>